<?xml version="1.0" encoding="utf-8"?>
<!-- Generator: Adobe Illustrator 19.0.0, SVG Export Plug-In . SVG Version: 6.00 Build 0)  -->
<svg version="1.1" id="Layer_1" xmlns="http://www.w3.org/2000/svg" xmlns:xlink="http://www.w3.org/1999/xlink" x="0px" y="0px"
	 viewBox="1252 414.4 100 13" style="enable-background:new 1252 414.4 100 13;" xml:space="preserve">
<style type="text/css">
	.st0{fill:#FFFFFF;}
</style>
<path class="st0" d="M1252,414.4c0.3,1.1,1.3,2.3,2.6,2.6h4.1l0.2,0.1v10.3h2.5v-10.3l0.2-0.1h4.1c1.4-0.4,2.3-1.5,2.6-2.6l0,0H1252
	L1252,414.4z"/>
<path class="st0" d="M1329.9,427.4c1.3-0.5,2-1.5,2.2-2.6h-11.3v-10.5h-2.5v13h11.6V427.4z"/>
<path class="st0" d="M1299.3,417h9c1.3-0.4,2.5-1.4,2.7-2.6h-14.2v7.7h11.6v2.7h-9.1c-1.4,0.4-2.6,1.4-3.2,2.6h0.7h14.2v-7.8h-11.7
	V417z"/>
<polygon class="st0" points="1337.5,419.6 1337.5,427.4 1340.1,427.4 1340.1,422.2 1349.2,422.2 1349.2,427.4 1351.8,427.4 
	1351.8,419.6 "/>
<path class="st0" d="M1277.2,417h9.7c1.3-0.3,2.4-1.5,2.6-2.6h-15C1274.9,415.6,1275.9,416.7,1277.2,417"/>
<path class="st0" d="M1277.2,422.2h9.7c1.3-0.3,2.4-1.5,2.6-2.6h-15C1274.9,420.7,1275.9,421.9,1277.2,422.2"/>
<path class="st0" d="M1277.2,427.4h9.7c1.3-0.3,2.4-1.5,2.6-2.6h-15C1274.9,426,1275.9,427.2,1277.2,427.4"/>
<path class="st0" d="M1339.8,417h9.7c1.3-0.3,2.4-1.5,2.6-2.6h-15C1337.4,415.6,1338.4,416.8,1339.8,417"/>
</svg>
